<svg width="28" height="28" viewBox="0 0 28 28" fill="none" xmlns="http://www.w3.org/2000/svg">
<g clip-path="url(#clip0_5015_55)">
<rect width="27.792" height="27.792" rx="6" fill="#0B68F7"/>
<path d="M13.6748 6.34912L13.6758 6.3501L13.6777 6.34912L13.6768 6.3501C13.885 6.35331 14.0869 6.42232 14.252 6.54932L14.3672 6.65381C14.4733 6.76681 14.5515 6.90446 14.5938 7.05518L17.4717 17.2905L18.8877 13.5171L18.9492 13.3833C19.0208 13.2557 19.1209 13.1451 19.2422 13.061L19.3691 12.9868C19.5005 12.9227 19.6455 12.8893 19.793 12.8892H42.1826C42.4391 12.8892 42.6848 12.9911 42.8662 13.1724L42.9307 13.2437C43.0717 13.4158 43.1504 13.6324 43.1504 13.8569C43.1503 14.0812 43.0716 14.2972 42.9307 14.4692L42.8662 14.5405C42.6848 14.7219 42.4391 14.8237 42.1826 14.8237H20.4639L18.2461 20.7368C18.1924 20.8799 18.1058 21.0075 17.9941 21.1099L17.875 21.2036C17.7474 21.2882 17.6018 21.3405 17.4512 21.3579L17.2998 21.3638C17.147 21.3573 16.9983 21.315 16.8662 21.2407L16.7402 21.1558C16.6202 21.0608 16.5253 20.939 16.4619 20.8013L16.4092 20.6587L13.6123 10.7153L12.541 14.145C12.4949 14.2927 12.4142 14.4265 12.3066 14.5356L12.1904 14.6362C12.0661 14.7276 11.9224 14.7877 11.7715 14.812L11.6182 14.8237H-9.18262C-9.40715 14.8237 -9.62375 14.7461 -9.7959 14.605L-9.86621 14.5405C-10.0476 14.3592 -10.1503 14.1134 -10.1504 13.8569C-10.1504 13.6003 -10.0477 13.3538 -9.86621 13.1724L-9.7959 13.1079C-9.62376 12.9668 -9.40712 12.8892 -9.18262 12.8892H10.9072L12.7383 7.02783L12.7959 6.8833C12.8653 6.74451 12.9677 6.62355 13.0947 6.53174L13.2275 6.45166C13.3648 6.38278 13.5169 6.34842 13.6719 6.3501L13.6729 6.34912H13.6748Z" fill="white" stroke="white" stroke-width="0.3"/>
</g>
<defs>
<clipPath id="clip0_5015_55">
<rect width="27.792" height="27.792" rx="6" fill="white"/>
</clipPath>
</defs>
</svg>
